<svg width="36" height="36" viewBox="0 0 36 36" fill="none" xmlns="http://www.w3.org/2000/svg">
<path d="M5.26953 0C3.69453 0 2.45703 1.29375 2.45703 2.86875V33.1875C2.45703 34.7625 3.69453 36 5.26953 36H31.032C32.607 36 33.9008 34.7625 33.9008 33.1875V11.475L23.2695 0H5.26953Z" fill="#49C9A7"/>
<path d="M33.9011 11.4749V12.0374H26.7011C26.7011 12.0374 23.1573 11.3062 23.2136 8.2124C23.2136 8.2124 23.3823 11.4749 26.6448 11.4749H33.9011Z" fill="#37BB91"/>
<path opacity="0.5" d="M23.2695 0V8.2125C23.2695 9.1125 23.8883 11.475 26.7008 11.475H33.9008L23.2695 0Z" fill="white"/>
<path fill-rule="evenodd" clip-rule="evenodd" d="M8.08203 30.2062V18.45H19.8383V30.2062H8.08203ZM18.657 19.6312H9.26328V26.7187H18.657V19.6312ZM13.257 24.3562L15.4508 21.375L16.182 22.5562L16.9133 22.3312L17.4758 25.4812H10.107L12.0758 23.625L13.257 24.3562ZM11.1195 22.275C10.6133 22.275 10.1633 21.9375 10.1633 21.4312C10.1633 20.9812 10.6133 20.5875 11.1195 20.5875C11.6258 20.5875 12.0195 20.9812 12.0195 21.4312C12.0195 21.9375 11.6258 22.275 11.1195 22.275Z" fill="white"/>
</svg>
